<svg width="58" height="58" viewBox="0 0 58 58" fill="none" xmlns="http://www.w3.org/2000/svg">
<g clip-path="url(#clip0_10_27)">
<path d="M23.905 11C11.15 11 0.81 21.34 0.81 34.095C0.81 38.399 1.991 42.426 4.041 45.875L0 58L13.16 54.537C13.164 54.539 13.167 54.54 13.171 54.542C13.175 54.541 13.179 54.538 13.183 54.537L19.472 53.138C20.013 53.023 20.546 53.359 20.665 53.898C20.785 54.437 20.445 54.971 19.906 55.091L16.3 55.893C18.683 56.726 21.238 57.189 23.905 57.189C36.66 57.19 47 46.85 47 34.095C47 21.34 36.66 11 23.905 11Z" fill="#22C55E"/>
<path d="M23.905 11C36.66 11 47 21.34 47 34.095C47 37.473 46.269 40.678 44.966 43.57L58 47L53.958 34.875C56.008 31.425 57.189 27.399 57.189 23.095C57.19 10.34 46.85 0 34.095 0C24.669 0 16.567 5.65 12.977 13.746C16.231 11.995 19.951 11 23.905 11Z" fill="#166534"/>
<path d="M30 28H19C18.448 28 18 27.553 18 27C18 26.447 18.448 26 19 26H30C30.552 26 31 26.447 31 27C31 27.553 30.552 28 30 28Z" fill="white"/>
<path d="M35 35H14C13.448 35 13 34.553 13 34C13 33.447 13.448 33 14 33H35C35.552 33 36 33.447 36 34C36 34.553 35.552 35 35 35Z" fill="white"/>
<path d="M35 42H14C13.448 42 13 41.553 13 41C13 40.447 13.448 40 14 40H35C35.552 40 36 40.447 36 41C36 41.553 35.552 42 35 42Z" fill="white"/>
</g>
<defs>
<clipPath id="clip0_10_27">
<rect width="58" height="58" fill="white"/>
</clipPath>
</defs>
</svg>
